<?xml version="1.0" encoding="UTF-8" standalone="no"?>
<!DOCTYPE svg PUBLIC "-//W3C//DTD SVG 1.1//EN"
 "http://www.w3.org/Graphics/SVG/1.1/DTD/svg11.dtd">
<!-- Generated by graphviz version 2.40.1 (20161225.0304)
 -->
<!-- Title: penguins Pages: 1 -->
<svg width="367pt" height="44pt"
 viewBox="0.00 0.00 367.00 44.00" xmlns="http://www.w3.org/2000/svg" xmlns:xlink="http://www.w3.org/1999/xlink">
<g id="graph0" class="graph" transform="scale(1 1) rotate(0) translate(4 40)">
<title>penguins</title>
<polygon fill="#ffffff" stroke="transparent" points="-4,4 -4,-40 363,-40 363,4 -4,4"/>
<!-- Route -->
<g id="node1" class="node">
<title>Route</title>
<polygon fill="none" stroke="#000000" points="54,-36 0,-36 0,0 54,0 54,-36"/>
<text text-anchor="start" x="9" y="-15.3" font-family="Times,serif" font-weight="bold" font-size="14.00" fill="#000000">Route</text>
</g>
<!-- PenguinFinder -->
<g id="node2" class="node">
<title>PenguinFinder</title>
<polygon fill="none" stroke="#000000" points="257,-36 90,-36 90,0 257,0 257,-36"/>
<text text-anchor="start" x="128.5" y="-21.8" font-family="Times,serif" font-weight="bold" font-size="14.00" fill="#000000">PenguinFinder</text>
<text text-anchor="start" x="98" y="-7.8" font-family="Times,serif" font-style="italic" font-size="14.00" fill="#000000">Find ID looking in params</text>
</g>
<!-- Route&#45;&gt;PenguinFinder -->
<g id="edge1" class="edge">
<title>Route&#45;&gt;PenguinFinder</title>
<path fill="none" stroke="#000000" d="M54.2122,-18C61.8081,-18 70.5149,-18 79.6899,-18"/>
<polygon fill="#000000" stroke="#000000" points="79.7992,-21.5001 89.7991,-18 79.7991,-14.5001 79.7992,-21.5001"/>
</g>
<!-- Penguin -->
<g id="node3" class="node">
<title>Penguin</title>
<polygon fill="none" stroke="#000000" points="359,-36 293,-36 293,0 359,0 359,-36"/>
<text text-anchor="start" x="301" y="-15.3" font-family="Times,serif" font-weight="bold" font-size="14.00" fill="#000000">Penguin</text>
</g>
<!-- PenguinFinder&#45;&gt;Penguin -->
<g id="edge2" class="edge">
<title>PenguinFinder&#45;&gt;Penguin</title>
<path fill="none" stroke="#000000" d="M257.3341,-18C266.0926,-18 274.7163,-18 282.7367,-18"/>
<polygon fill="#000000" stroke="#000000" points="282.8937,-21.5001 292.8936,-18 282.8936,-14.5001 282.8937,-21.5001"/>
</g>
</g>
</svg>
